<?xml version="1.0" encoding="utf-8"?>
<!-- Generator: Adobe Illustrator 17.0.0, SVG Export Plug-In . SVG Version: 6.00 Build 0)  -->
<!DOCTYPE svg PUBLIC "-//W3C//DTD SVG 1.1//EN" "http://www.w3.org/Graphics/SVG/1.1/DTD/svg11.dtd">
<svg version="1.1" id="Layer_1" xmlns="http://www.w3.org/2000/svg" xmlns:xlink="http://www.w3.org/1999/xlink" x="0px" y="0px"
	 width="17.596px" height="24.543px" viewBox="0 0 17.596 24.543" enable-background="new 0 0 17.596 24.543" xml:space="preserve">
<polygon fill="#939598" points="2.34,24.543 8.296,24.543 17.596,23.439 17.596,22.864 16.642,22.527 0.278,20.04 "/>
<g>
	<defs>
		<rect id="SVGID_1_" x="0" y="0" width="17.595" height="24.543"/>
	</defs>
	<clipPath id="SVGID_2_">
		<use xlink:href="#SVGID_1_"  overflow="visible"/>
	</clipPath>
	<polygon clip-path="url(#SVGID_2_)" fill="none" stroke="#939598" stroke-width="0.198" points="16.641,22.527 18.813,23.293 
		2.648,25.215 0.278,20.042 	"/>
</g>
<polygon fill="#F1F2F2" points="16.641,22.527 2.872,23.959 2.872,0.9 16.641,2.415 "/>
<polygon fill="none" stroke="#939598" stroke-width="0.099" stroke-linecap="round" stroke-linejoin="round" points="16.641,22.527 
	2.872,23.959 2.872,0.9 16.641,2.415 "/>
<polygon fill="#A7A9AC" points="0.117,4.286 0.117,20.04 2.96,24.047 2.96,0.988 "/>
<polygon fill="none" stroke="#939598" stroke-width="0.102" stroke-linecap="round" stroke-linejoin="round" points="0.117,20.04 
	2.96,24.048 2.96,0.988 0.117,4.286 "/>
<polygon fill="#F1F2F2" points="2.939,1.169 16.708,2.509 16.708,1.807 2.939,0.292 "/>
<polygon fill="none" stroke="#939598" stroke-width="0.099" stroke-linecap="round" stroke-linejoin="round" points="16.709,2.509 
	2.939,1.168 2.939,0.292 16.709,1.807 "/>
<polygon fill="#D1D3D4" points="0.103,3.744 0.103,4.447 2.897,1.125 2.897,0.248 "/>
<polygon fill="none" stroke="#939598" stroke-width="0.102" stroke-linecap="round" stroke-linejoin="round" points="0.103,4.446 
	2.897,1.125 2.897,0.248 0.103,3.744 "/>
<g>
	<defs>
		<rect id="SVGID_3_" x="0" y="0" width="17.595" height="24.543"/>
	</defs>
	<clipPath id="SVGID_4_">
		<use xlink:href="#SVGID_3_"  overflow="visible"/>
	</clipPath>
	<path clip-path="url(#SVGID_4_)" fill-rule="evenodd" clip-rule="evenodd" fill="#A7A9AC" d="M15.314,12.785
		c0,3.285-2.477,5.948-5.534,5.948c-3.056,0-5.534-2.663-5.534-5.948c0-3.285,2.478-5.949,5.534-5.949
		C12.837,6.836,15.314,9.5,15.314,12.785"/>
	<path clip-path="url(#SVGID_4_)" fill-rule="evenodd" clip-rule="evenodd" fill="#E6E7E8" d="M15.265,12.489
		c0,3.182-2.4,5.762-5.361,5.762c-2.961,0-5.361-2.58-5.361-5.762c0-3.183,2.4-5.762,5.361-5.762
		C12.864,6.727,15.265,9.306,15.265,12.489"/>
	
		<ellipse clip-path="url(#SVGID_4_)" fill="none" stroke="#AFDFE4" stroke-width="0.197" stroke-linecap="round" stroke-linejoin="round" cx="9.903" cy="12.489" rx="5.361" ry="5.762"/>
	<path clip-path="url(#SVGID_4_)" fill-rule="evenodd" clip-rule="evenodd" fill="#E6E7E8" d="M15.709,12.313
		c0,0.767-0.331,1.39-0.739,1.39c-0.409,0-0.739-0.623-0.739-1.39c0-0.767,0.33-1.39,0.739-1.39
		C15.378,10.922,15.709,11.545,15.709,12.313"/>
	
		<ellipse clip-path="url(#SVGID_4_)" fill="none" stroke="#AFDFE4" stroke-width="0.197" stroke-linecap="round" stroke-linejoin="round" cx="14.97" cy="12.312" rx="0.739" ry="1.39"/>
	<path clip-path="url(#SVGID_4_)" fill-rule="evenodd" clip-rule="evenodd" fill="#A7A9AC" d="M13.723,12.489
		c0,2.267-1.71,4.106-3.818,4.106c-2.11,0-3.82-1.839-3.82-4.106s1.71-4.106,3.82-4.106C12.013,8.383,13.723,10.222,13.723,12.489"
		/>
	
		<ellipse clip-path="url(#SVGID_4_)" fill="none" stroke="#000000" stroke-width="0.14" stroke-linecap="round" stroke-linejoin="round" cx="9.903" cy="12.489" rx="3.819" ry="4.106"/>
	<path clip-path="url(#SVGID_4_)" fill-rule="evenodd" clip-rule="evenodd" fill="#58B7DD" d="M12.471,12.489
		c0,1.759-1.326,3.185-2.963,3.185s-2.963-1.426-2.963-3.185c0-1.759,1.326-3.185,2.963-3.185S12.471,10.73,12.471,12.489"/>
	
		<ellipse clip-path="url(#SVGID_4_)" fill="none" stroke="#AFDFE4" stroke-width="0.14" stroke-linecap="round" stroke-linejoin="round" cx="9.508" cy="12.489" rx="2.963" ry="3.185"/>
	<path clip-path="url(#SVGID_4_)" fill-rule="evenodd" clip-rule="evenodd" fill="#E6E7E8" d="M6.1,3.502
		c0,0.474-0.357,0.857-0.798,0.857c-0.44,0-0.797-0.383-0.797-0.857s0.357-0.857,0.797-0.857C5.743,2.645,6.1,3.028,6.1,3.502"/>
	
		<ellipse clip-path="url(#SVGID_4_)" fill="none" stroke="#AFDFE4" stroke-width="0.099" stroke-linecap="round" stroke-linejoin="round" cx="5.303" cy="3.502" rx="0.797" ry="0.857"/>
	<path clip-path="url(#SVGID_4_)" fill-rule="evenodd" clip-rule="evenodd" fill="#BCBEC0" d="M6.069,3.479
		c0,0.337-0.254,0.611-0.568,0.611c-0.314,0-0.568-0.274-0.568-0.611c0-0.337,0.254-0.611,0.568-0.611
		C5.815,2.868,6.069,3.142,6.069,3.479"/>
	
		<ellipse clip-path="url(#SVGID_4_)" fill="none" stroke="#000000" stroke-width="0.04" stroke-linecap="round" stroke-linejoin="round" cx="5.501" cy="3.479" rx="0.568" ry="0.611"/>
	<path clip-path="url(#SVGID_4_)" fill-rule="evenodd" clip-rule="evenodd" fill="#58B7DD" d="M6.08,3.479
		c0,0.262-0.197,0.474-0.441,0.474c-0.243,0-0.441-0.212-0.441-0.474c0-0.262,0.198-0.474,0.441-0.474
		C5.883,3.005,6.08,3.217,6.08,3.479"/>
	
		<ellipse clip-path="url(#SVGID_4_)" fill="none" stroke="#58595B" stroke-width="0.04" stroke-linecap="round" stroke-linejoin="round" cx="5.64" cy="3.479" rx="0.441" ry="0.474"/>
	<path clip-path="url(#SVGID_4_)" fill="#6D6E71" d="M5.645,3.268C5.556,3.186,5.411,3.2,5.324,3.296
		C5.235,3.393,5.237,3.538,5.328,3.62C5.418,3.702,5.563,3.689,5.65,3.592C5.739,3.495,5.735,3.35,5.645,3.268 M5.344,3.596
		C5.298,3.555,5.297,3.483,5.341,3.434C5.386,3.386,5.457,3.379,5.502,3.42c0.045,0.041,0.046,0.113,0.002,0.162
		C5.46,3.63,5.389,3.637,5.344,3.596"/>
	<path clip-path="url(#SVGID_4_)" fill-rule="evenodd" clip-rule="evenodd" fill="#D1D3D4" d="M7.811,2.895
		c0,0.115-0.093,0.208-0.208,0.208c-0.115,0-0.209-0.093-0.209-0.208c0-0.115,0.094-0.208,0.209-0.208
		C7.718,2.688,7.811,2.781,7.811,2.895"/>
	
		<circle clip-path="url(#SVGID_4_)" fill="none" stroke="#808285" stroke-width="0.04" stroke-linecap="round" stroke-linejoin="round" cx="7.603" cy="2.896" r="0.208"/>
	<path clip-path="url(#SVGID_4_)" fill-rule="evenodd" clip-rule="evenodd" fill="#D1D3D4" d="M7.811,4.48
		c0,0.115-0.093,0.208-0.208,0.208c-0.115,0-0.209-0.093-0.209-0.208c0-0.115,0.094-0.208,0.209-0.208
		C7.718,4.272,7.811,4.365,7.811,4.48"/>
	
		<circle clip-path="url(#SVGID_4_)" fill="none" stroke="#808285" stroke-width="0.04" stroke-linecap="round" stroke-linejoin="round" cx="7.603" cy="4.48" r="0.208"/>
	<path clip-path="url(#SVGID_4_)" fill-rule="evenodd" clip-rule="evenodd" fill="#D1D3D4" d="M7.811,3.688
		c0,0.115-0.093,0.208-0.208,0.208c-0.115,0-0.209-0.093-0.209-0.208c0-0.115,0.094-0.208,0.209-0.208
		C7.718,3.48,7.811,3.573,7.811,3.688"/>
	
		<circle clip-path="url(#SVGID_4_)" fill="none" stroke="#808285" stroke-width="0.04" stroke-linecap="round" stroke-linejoin="round" cx="7.603" cy="3.688" r="0.208"/>
	
		<line clip-path="url(#SVGID_4_)" fill="none" stroke="#BCBEC0" stroke-width="0.099" stroke-linecap="round" stroke-linejoin="round" x1="3.288" y1="5.353" x2="16.201" y2="6.092"/>
	
		<line clip-path="url(#SVGID_4_)" fill="none" stroke="#BCBEC0" stroke-width="0.099" stroke-linecap="round" stroke-linejoin="round" x1="3.338" y1="19.498" x2="16.054" y2="18.759"/>
	
		<line clip-path="url(#SVGID_4_)" fill="none" stroke="#BCBEC0" stroke-width="0.099" stroke-linecap="round" stroke-linejoin="round" x1="12.112" y1="3.319" x2="15.169" y2="3.631"/>
	
		<line clip-path="url(#SVGID_4_)" fill="none" stroke="#BCBEC0" stroke-width="0.099" stroke-linecap="round" stroke-linejoin="round" x1="12.112" y1="3.747" x2="15.169" y2="4.026"/>
	
		<line clip-path="url(#SVGID_4_)" fill="none" stroke="#BCBEC0" stroke-width="0.099" stroke-linecap="round" stroke-linejoin="round" x1="12.112" y1="4.176" x2="15.169" y2="4.422"/>
	
		<line clip-path="url(#SVGID_4_)" fill="none" stroke="#BCBEC0" stroke-width="0.099" stroke-linecap="round" stroke-linejoin="round" x1="12.112" y1="4.605" x2="15.169" y2="4.819"/>
	
		<line clip-path="url(#SVGID_4_)" fill="none" stroke="#BCBEC0" stroke-width="0.099" stroke-linecap="round" stroke-linejoin="round" x1="12.112" y1="5.034" x2="15.169" y2="5.215"/>
	<path clip-path="url(#SVGID_4_)" fill-rule="evenodd" clip-rule="evenodd" fill="#A7A9AC" d="M9.422,3.551
		c-0.003,0.063-0.056,0.112-0.119,0.11L8.885,3.659C8.818,3.656,8.767,3.6,8.769,3.534l0.018-0.415
		C8.79,3.052,8.847,3.001,8.913,3.004L9.33,3.038c0.063,0.002,0.113,0.056,0.11,0.119L9.422,3.551z"/>
	
		<path clip-path="url(#SVGID_4_)" fill="none" stroke="#000000" stroke-width="0.04" stroke-linecap="round" stroke-linejoin="round" d="
		M9.422,3.551c-0.003,0.063-0.056,0.112-0.119,0.11L8.885,3.659C8.818,3.656,8.767,3.6,8.769,3.534l0.018-0.415
		C8.79,3.052,8.847,3.001,8.913,3.004L9.33,3.038c0.063,0.002,0.113,0.056,0.11,0.119L9.422,3.551z"/>
	<path clip-path="url(#SVGID_4_)" fill-rule="evenodd" clip-rule="evenodd" fill="#A7A9AC" d="M10.866,3.625
		c-0.003,0.056-0.051,0.1-0.106,0.097l-0.372-0.001c-0.059-0.002-0.105-0.052-0.102-0.111l0.015-0.369
		c0.003-0.059,0.053-0.105,0.112-0.102l0.37,0.03c0.057,0.002,0.1,0.05,0.098,0.106L10.866,3.625z"/>
	
		<path clip-path="url(#SVGID_4_)" fill="none" stroke="#000000" stroke-width="0.04" stroke-linecap="round" stroke-linejoin="round" d="
		M10.866,3.625c-0.003,0.056-0.051,0.1-0.106,0.097l-0.372-0.001c-0.059-0.002-0.105-0.052-0.102-0.111l0.015-0.369
		c0.003-0.059,0.053-0.105,0.112-0.102l0.37,0.03c0.057,0.002,0.1,0.05,0.098,0.106L10.866,3.625z"/>
	<path clip-path="url(#SVGID_4_)" fill="#00A79D" d="M11.356,12.647c-0.375,0.14-1.245,0.062-1.509,0.258
		c-0.215,0.159-0.329,0.832-0.37,1.073c-0.209-0.028-0.412-0.046-0.584,0.008c-0.265,0.082-0.42,0.404-0.776,0.327
		c-0.294-0.064-0.406-0.502-0.623-0.763C7.31,13.668,7.111,14,7.036,14.246c0.531,0.861,1.439,1.43,2.471,1.43
		c0.842,0,1.601-0.381,2.14-0.986c-0.008-0.259-0.028-0.517-0.053-0.757C11.549,13.485,11.37,13.074,11.356,12.647"/>
	
		<path clip-path="url(#SVGID_4_)" fill="none" stroke="#AFDFE4" stroke-width="0.14" stroke-linecap="round" stroke-linejoin="round" d="
		M11.356,12.647c-0.375,0.14-1.245,0.062-1.509,0.258c-0.215,0.159-0.329,0.832-0.37,1.073c-0.209-0.028-0.412-0.046-0.584,0.008
		c-0.265,0.082-0.42,0.404-0.776,0.327c-0.294-0.064-0.406-0.502-0.623-0.763C7.31,13.668,7.111,14,7.036,14.246
		c0.531,0.861,1.439,1.43,2.471,1.43c0.842,0,1.601-0.381,2.14-0.986c-0.008-0.259-0.028-0.517-0.053-0.757
		C11.549,13.485,11.37,13.074,11.356,12.647z"/>
	<path clip-path="url(#SVGID_4_)" fill="#E44145" d="M12.494,12.915l-0.104-0.113c-0.53-0.155-0.679,0.455-0.708,0.907
		c-0.017-0.003-0.13-0.002-0.145,0.001c-0.128-0.602-0.237-0.954-0.696-0.356c-0.249,0.324-0.61,0.663-0.558,1.109
		c-0.485-0.034-1.04-0.334-0.924,0.345c0.064,0.372,0.532,0.498,0.554,0.792l0.049,0.042C11.279,15.45,12.318,14.33,12.494,12.915"
		/>
	
		<path clip-path="url(#SVGID_4_)" fill="none" stroke="#AFDFE4" stroke-width="0.14" stroke-linecap="round" stroke-linejoin="round" d="
		M12.494,12.915l-0.104-0.113c-0.53-0.155-0.679,0.455-0.708,0.907c-0.017-0.003-0.13-0.002-0.145,0.001
		c-0.128-0.602-0.237-0.954-0.696-0.356c-0.249,0.324-0.61,0.663-0.558,1.109c-0.485-0.034-1.04-0.334-0.924,0.345
		c0.064,0.372,0.532,0.498,0.554,0.792l0.049,0.042C11.279,15.45,12.318,14.33,12.494,12.915z"/>
	<path clip-path="url(#SVGID_4_)" fill="#BED73B" d="M8.303,14.905c0.16-0.104,0.375-0.725,0.375-0.919
		c0.002-0.662-0.357-0.194-0.598-0.549c-0.215-0.316,0.224-0.511,0.011-0.846c-0.101-0.158-0.422-0.378-0.542-0.54
		c-0.158-0.213-0.173-0.418-0.451-0.575c-0.142,0.19-0.324,0.327-0.507,0.464c-0.029,0.179-0.047,0.361-0.047,0.549
		c0,1.008,0.437,1.905,1.117,2.489C7.925,14.986,8.216,14.962,8.303,14.905"/>
	
		<path clip-path="url(#SVGID_4_)" fill="none" stroke="#AFDFE4" stroke-width="0.14" stroke-linecap="round" stroke-linejoin="round" d="
		M8.303,14.905c0.16-0.104,0.375-0.725,0.375-0.919c0.002-0.662-0.357-0.194-0.598-0.549c-0.215-0.316,0.224-0.511,0.011-0.846
		c-0.101-0.158-0.422-0.378-0.542-0.54c-0.158-0.213-0.173-0.418-0.451-0.575c-0.142,0.19-0.324,0.327-0.507,0.464
		c-0.029,0.179-0.047,0.361-0.047,0.549c0,1.008,0.437,1.905,1.117,2.489C7.925,14.986,8.216,14.962,8.303,14.905z"/>
	<path clip-path="url(#SVGID_4_)" fill="#E6E7E8" d="M9.547,11.072C8.94,10.523,7.969,10.607,7.38,11.26
		c-0.59,0.652-0.576,1.626,0.031,2.175c0.607,0.549,1.577,0.464,2.167-0.188C10.168,12.594,10.154,11.62,9.547,11.072 M7.517,13.273
		c-0.304-0.275-0.31-0.761-0.016-1.087c0.295-0.327,0.78-0.369,1.084-0.095c0.303,0.275,0.31,0.762,0.016,1.088
		C8.306,13.505,7.821,13.547,7.517,13.273"/>
	<path clip-path="url(#SVGID_4_)" d="M2.838,0.26c0.014,0,0.029,0.004,0.041,0.014c0.012,0.008,0.02,0.019,0.024,0.032l13.75,1.512
		c0.034,0.004,0.062,0.034,0.062,0.069v0.702c0,0.02-0.009,0.039-0.023,0.052c-0.014,0.011-0.029,0.017-0.046,0.018v19.948
		c0,0.036-0.026,0.066-0.062,0.069L2.966,24.093v0.036c0,0.03-0.02,0.057-0.049,0.065c-0.007,0.003-0.014,0.004-0.02,0.004
		c-0.023,0-0.045-0.013-0.058-0.031L2.8,24.109c-0.014-0.002-0.028-0.008-0.038-0.018c-0.015-0.013-0.023-0.031-0.023-0.051v-0.023
		l-2.582-3.857l-0.012-0.039V4.567c-0.008-0.012-0.013-0.026-0.013-0.04V3.825l0.014-0.042l2.637-3.496
		C2.796,0.269,2.817,0.26,2.838,0.26 M2.838,0.121c-0.065,0-0.127,0.031-0.166,0.082L0.036,3.699
		C0.027,3.711,0.02,3.725,0.015,3.739L0.001,3.781C-0.004,3.795-0.006,3.81-0.006,3.825v0.702c0,0.024,0.004,0.049,0.013,0.072
		v15.522c0,0.014,0.001,0.026,0.005,0.04l0.012,0.039c0.004,0.013,0.01,0.025,0.018,0.037l2.559,3.823
		c0.005,0.05,0.029,0.099,0.067,0.133c0.013,0.012,0.027,0.021,0.041,0.029l0.015,0.022c0.04,0.059,0.104,0.092,0.173,0.092
		c0.02,0,0.04-0.003,0.058-0.008c0.057-0.018,0.103-0.058,0.128-0.107l13.516-1.407c0.106-0.01,0.186-0.099,0.186-0.207V2.743
		c0.043-0.037,0.067-0.094,0.067-0.154V1.887c0-0.105-0.078-0.194-0.185-0.207L2.977,0.174C2.972,0.17,2.967,0.167,2.962,0.162
		C2.927,0.136,2.884,0.121,2.838,0.121"/>
</g>
</svg>
