<?xml version="1.0" encoding="utf-8"?>
<!-- Generator: Adobe Illustrator 17.0.0, SVG Export Plug-In . SVG Version: 6.00 Build 0)  -->
<!DOCTYPE svg PUBLIC "-//W3C//DTD SVG 1.1//EN" "http://www.w3.org/Graphics/SVG/1.1/DTD/svg11.dtd">
<svg version="1.1" id="Layer_1" xmlns="http://www.w3.org/2000/svg" xmlns:xlink="http://www.w3.org/1999/xlink" x="0px" y="0px"
	 width="34.84px" height="17.195px" viewBox="0 0 34.84 17.195" enable-background="new 0 0 34.84 17.195" xml:space="preserve">
<polygon fill="#939598" points="0.603,13.465 2.885,14.406 5.876,14.365 14.193,16.256 17.708,17.195 34.84,15.663 9.992,13.337 
	1.504,13.208 "/>
<g>
	<defs>
		<rect id="SVGID_1_" x="0" y="0" width="34.84" height="17.195"/>
	</defs>
	<clipPath id="SVGID_2_">
		<use xlink:href="#SVGID_1_"  overflow="visible"/>
	</clipPath>
	<path clip-path="url(#SVGID_2_)" fill="#FFFFFF" d="M32.825,11.851c-0.001-0.552,0.153-0.968,0.155-1.439
		c0-0.083-0.005-0.168-0.018-0.253l-0.104,0.016l0.104-0.017c-0.178-1.219-0.967-2.777-1.966-3.432
		c-1.231-0.794-3.141-1.037-4.293-1.9c-0.006-0.014-0.009-0.028-0.009-0.05c-0.006-0.104,0.104-0.301,0.109-0.529
		c0-0.097-0.025-0.205-0.096-0.302c-0.294-0.38-0.97-0.46-1.475-0.467c-0.083,0-0.162,0.003-0.235,0.009
		c-0.916-0.477-2.303-1.721-3.612-2.252c-1.992-0.802-5.022-0.829-7.662-0.83c-0.228,0-0.45,0-0.669,0
		c-2.772,0.003-5.92,0.035-7.802,1.25c-1.562,1.02-2.428,2.448-4.02,3.004L1.186,4.677L1.169,4.724
		C0.821,5.67,0.414,7.192,0.413,8.568c0.001,0.961,0.197,1.86,0.781,2.437l0.031,0.029c0.029,1.574,0.643,3.069,2.111,3.077
		c0.032,0,0.064-0.001,0.096-0.002c1.178-0.045,1.779-0.694,2.001-1.562l0.021,0.003c0.025,0.004,0.049,0.005,0.071,0.005
		c0.017,0,0.029-0.001,0.037-0.001c2.574,0.278,4.687,0.559,7.051,1.065c0.061,0.035,0.126,0.067,0.195,0.091
		c0.207,1.551,1.006,2.87,2.572,2.87c0.038,0,0.078-0.001,0.117-0.002c1.671-0.06,2.399-1.026,2.587-2.266
		c0.549,0.018,1.091,0.03,1.627,0.039c0.068,0.001,0.136,0.003,0.203,0.003c0.444,0.007,0.886,0.011,1.322,0.011
		c0.126,0,0.251-0.002,0.376-0.001h0.006c1.681-0.008,3.311-0.064,4.9-0.172c0.455,0.836,1.22,1.407,2.303,1.405
		c0.043,0,0.087-0.001,0.13-0.003c0.791-0.032,1.39-0.235,1.831-0.569l-0.005,0.004c0.028-0.019,0.047-0.035,0.068-0.052
		c0.227-0.173,0.42-0.392,0.553-0.654c0.103-0.176,0.185-0.372,0.252-0.579c0.526-0.099,0.991-0.146,1.232-0.573
		c0.074-0.139,0.104-0.272,0.104-0.398c-0.005-0.311-0.155-0.555-0.16-0.821C32.826,11.916,32.825,11.884,32.825,11.851"/>
	
		<path clip-path="url(#SVGID_2_)" fill="none" stroke="#000000" stroke-width="0.271" stroke-linecap="round" stroke-linejoin="round" d="
		M32.825,11.851c-0.001-0.552,0.153-0.968,0.155-1.439c0-0.083-0.005-0.168-0.018-0.253l-0.104,0.016l0.104-0.017
		c-0.178-1.219-0.967-2.777-1.966-3.432c-1.231-0.794-3.141-1.037-4.293-1.9c-0.006-0.014-0.009-0.028-0.009-0.05
		c-0.006-0.104,0.104-0.301,0.109-0.529c0-0.097-0.025-0.205-0.096-0.302c-0.294-0.38-0.97-0.46-1.475-0.467
		c-0.083,0-0.162,0.003-0.235,0.009c-0.916-0.477-2.303-1.721-3.612-2.252c-1.992-0.802-5.022-0.829-7.662-0.83
		c-0.228,0-0.45,0-0.669,0c-2.772,0.003-5.92,0.035-7.802,1.25c-1.562,1.02-2.428,2.448-4.02,3.004L1.186,4.677L1.169,4.724
		C0.821,5.67,0.414,7.192,0.413,8.568c0.001,0.961,0.197,1.86,0.781,2.437l0.031,0.029c0.029,1.574,0.643,3.069,2.111,3.077
		c0.032,0,0.064-0.001,0.096-0.002c1.178-0.045,1.779-0.694,2.001-1.562l0.021,0.003c0.025,0.004,0.049,0.005,0.071,0.005
		c0.017,0,0.029-0.001,0.037-0.001c2.574,0.278,4.687,0.559,7.051,1.065c0.061,0.035,0.126,0.067,0.195,0.091
		c0.207,1.551,1.006,2.87,2.572,2.87c0.038,0,0.078-0.001,0.117-0.002c1.671-0.06,2.399-1.026,2.587-2.266
		c0.549,0.018,1.091,0.03,1.627,0.039c0.068,0.001,0.136,0.003,0.203,0.003c0.444,0.007,0.886,0.011,1.322,0.011
		c0.126,0,0.251-0.002,0.376-0.001h0.006c1.681-0.008,3.311-0.064,4.9-0.172c0.455,0.836,1.22,1.407,2.303,1.405
		c0.043,0,0.087-0.001,0.13-0.003c0.791-0.032,1.39-0.235,1.831-0.569l-0.005,0.004c0.028-0.019,0.047-0.035,0.068-0.052
		c0.227-0.173,0.42-0.392,0.553-0.654c0.103-0.176,0.185-0.372,0.252-0.579c0.526-0.099,0.991-0.146,1.232-0.573
		c0.074-0.139,0.104-0.272,0.104-0.398c-0.005-0.311-0.155-0.555-0.16-0.821C32.826,11.916,32.825,11.884,32.825,11.851z"/>
	<path clip-path="url(#SVGID_2_)" fill="#6D6E71" d="M2.899,7.749C2.505,7.76,1.98,7.668,1.609,7.826
		C1.246,7.979,1.157,8.281,1.082,8.645C0.979,9.145,0.919,9.68,0.9,10.189c-0.007,0.197,0.034,0.078,0.105,0.255
		C1.1,10.68,1.2,10.902,1.419,11.035c0.135,0.08,0.234,0.358,0.39,0.389c0.583,0.114,1.16,0.308,1.735,0.46
		c0.648,0.172,1.288,0.433,1.945,0.548c-0.004,0.007-0.011,0.012-0.018,0.014c0.595,0.084,0.544-0.957,0.444-1.284
		c-0.151-0.501-0.338-0.983-0.516-1.475C5.283,9.36,5.229,8.949,5.017,8.678c-0.384-0.49-1.253-0.582-1.802-0.77
		C2.949,7.817,2.578,7.657,2.298,7.745"/>
	<path clip-path="url(#SVGID_2_)" fill="#6D6E71" d="M14.155,8.813c-0.47,0.015-1.093-0.106-1.535,0.101
		c-0.433,0.203-0.539,0.603-0.628,1.083c-0.122,0.66-0.194,1.368-0.215,2.041c-0.008,0.26,0.04,0.104,0.125,0.337
		c0.11,0.311,0.229,0.802,0.491,0.977c0.16,0.107,0.326,0.235,0.511,0.275c0.694,0.149,1.333,0.449,2.017,0.65
		c0.771,0.227,0.977,0.436,1.76,0.589c-0.006,0.009,0.069-0.004,0.059,0c0.71,0.11,0.827-1.75,0.709-2.183
		c-0.18-0.662-0.108-0.66-0.319-1.31c-0.139-0.431-0.201-0.974-0.455-1.333c-0.456-0.647-1.491-0.769-2.145-1.017
		c-0.316-0.121-0.757-0.333-1.09-0.217"/>
	<path clip-path="url(#SVGID_2_)" fill-rule="evenodd" clip-rule="evenodd" fill="#F1645D" d="M4.141,8.446
		c-0.346-0.374-3.124-1.46-2.871,2.482c-1.341-1.317-0.586-4.576,0-6.168c1.636-0.577,2.504-2.015,4.043-3.015
		c1.835-1.191,4.974-1.233,7.743-1.233c2.781,0,6.165-0.037,8.291,0.822c1.299,0.525,2.695,1.782,3.632,2.261
		c0.48-0.04,1.365,0.031,1.646,0.411c0.227,0.319-0.143,0.676,0,0.891c1.185,0.896,3.111,1.137,4.316,1.919
		c0.958,0.623,1.748,2.169,1.918,3.357c0.081,0.565-0.161,1.052-0.137,1.782c0.014,0.422,0.303,0.734,0.069,1.165
		c-0.219,0.4-0.698,0.428-1.303,0.548c-0.254,2.229-4.142,2.315-4.864,0.411c-2.734,0.19-5.582,0.23-8.61,0.124
		c-0.04-0.825-0.041-4.173-2.403-4.53c-2.654-0.399-3.356,1.667-2.922,3.854c-2.423-0.524-4.579-0.805-7.239-1.091
		C5.584,10.878,5.181,9.506,4.141,8.446 M23.402,10.037c-0.442-1.564-2.468-2.368-4.522-2.536c-0.448-0.036-1.039-0.076-1.303,0.343
		C17.774,10.32,21.3,9.469,23.402,10.037 M31.009,6.953c-0.28,0.675-0.097,1.648,0.068,2.536c0.438-0.157,0.757-0.432,1.164-0.617
		C32.004,8.061,31.512,7.501,31.009,6.953"/>
	<path clip-path="url(#SVGID_2_)" fill="#B75252" d="M21.41,11.544c-0.188-0.648,0.087-1.108-0.034-1.757
		c-1.809-0.102-3.657-0.169-3.798-1.943c0.264-0.419,0.854-0.379,1.302-0.342c0.145,0.012,0.288,0.027,0.433,0.045
		c-0.397-0.186-0.816-0.346-1.228-0.503c-1.316-0.507-2.975,0.016-4.342-0.425c-1.361-0.44-1.679-2.538-2.621-3.552
		C10,1.859,8.791,1.46,7.14,1.46c-0.572,0-1.041,0.009-1.514,0.102C5.518,1.62,5.413,1.68,5.313,1.745
		c-1.539,1-2.408,2.439-4.044,3.016c-0.586,1.592-1.341,4.85,0,6.167C1.017,6.987,3.794,8.072,4.141,8.446
		c1.04,1.06,1.442,2.432,1.309,3.99c2.66,0.285,4.816,0.568,7.239,1.092c-0.434-2.188,0.268-4.254,2.922-3.854
		c2.363,0.357,2.363,3.705,2.403,4.53c1.23,0.043,2.431,0.06,3.607,0.055c0.121-0.204,0.214-0.427,0.264-0.676
		C22.057,12.71,21.622,12.274,21.41,11.544"/>
	<path clip-path="url(#SVGID_2_)" fill="#455560" d="M5.421,10.796c0.142,1.642-0.163,3.127-1.99,3.208
		c-1.481,0.066-2.101-1.459-2.101-3.107c0-1.648,0.503-2.582,1.694-2.619C4.459,8.233,5.258,8.928,5.421,10.796"/>
	<path clip-path="url(#SVGID_2_)" fill="#455560" d="M18.002,12.667c0.181,1.948-0.204,3.71-2.505,3.807
		c-1.864,0.078-2.644-1.731-2.644-3.688c0-1.956,0.634-3.063,2.133-3.108C16.792,9.626,17.798,10.449,18.002,12.667"/>
	<path clip-path="url(#SVGID_2_)" fill-rule="evenodd" clip-rule="evenodd" fill="#FFFFFF" d="M31.05,6.953
		c-0.28,0.675-0.096,1.648,0.068,2.536c0.438-0.157,0.757-0.432,1.164-0.617C32.045,8.061,31.553,7.501,31.05,6.953"/>
	<path clip-path="url(#SVGID_2_)" fill="none" stroke="#80B6BC" stroke-width="0.013" d="M31.05,6.953
		c-0.28,0.675-0.096,1.648,0.068,2.536c0.438-0.157,0.757-0.432,1.164-0.617C32.045,8.061,31.553,7.501,31.05,6.953z"/>
	<path clip-path="url(#SVGID_2_)" fill-rule="evenodd" clip-rule="evenodd" fill="#FFFFFF" d="M23.443,10.037
		C23,8.472,20.975,7.669,18.921,7.502c-0.448-0.037-1.039-0.077-1.302,0.342C17.814,10.321,21.34,9.468,23.443,10.037"/>
	<path clip-path="url(#SVGID_2_)" fill="none" stroke="#80B6BC" stroke-width="0.013" d="M23.443,10.037
		C23,8.472,20.975,7.669,18.921,7.502c-0.448-0.037-1.039-0.077-1.302,0.342C17.814,10.321,21.34,9.468,23.443,10.037z"/>
	<path clip-path="url(#SVGID_2_)" fill-rule="evenodd" clip-rule="evenodd" fill="#A9ADB3" d="M2.132,9.763
		c-0.577,0.35-0.393,3.105,0.411,3.084c0.807-0.021,0.868-3.001-0.137-3.152C2.348,9.687,2.185,9.731,2.132,9.763"/>
	<path clip-path="url(#SVGID_2_)" fill="none" stroke="#80B6BC" stroke-width="0.013" stroke-linejoin="round" d="M2.132,9.763
		c-0.577,0.35-0.393,3.105,0.411,3.084c0.807-0.021,0.868-3.001-0.137-3.152C2.348,9.687,2.185,9.731,2.132,9.763z"/>
	<path clip-path="url(#SVGID_2_)" fill-rule="evenodd" clip-rule="evenodd" fill="#A9ADB3" d="M14.672,11.271
		c-1.452-0.351-1.098,3.822,0.068,3.838C15.979,15.125,15.542,11.481,14.672,11.271"/>
	<path clip-path="url(#SVGID_2_)" fill="none" stroke="#80B6BC" stroke-width="0.013" stroke-linejoin="round" d="M14.672,11.271
		c-1.452-0.351-1.098,3.822,0.068,3.838C15.979,15.125,15.542,11.481,14.672,11.271z"/>
	<path clip-path="url(#SVGID_2_)" fill-rule="evenodd" clip-rule="evenodd" fill="#8B9B92" d="M2.406,9.626
		c0.972,0,1.022,2.527,0.48,3.084C1.805,13.82,1.044,9.626,2.406,9.626"/>
	<path clip-path="url(#SVGID_2_)" fill="none" stroke="#CFD4D8" stroke-width="0.213" stroke-linejoin="round" d="M2.406,9.626
		c0.972,0,1.022,2.527,0.48,3.084C1.805,13.82,1.044,9.626,2.406,9.626z"/>
	<path clip-path="url(#SVGID_2_)" fill-rule="evenodd" clip-rule="evenodd" fill="#8B9B92" d="M14.74,15.245
		c-1.236-0.024-1.667-4.42-0.067-3.975C15.631,11.538,16.137,15.273,14.74,15.245"/>
	<path clip-path="url(#SVGID_2_)" fill="none" stroke="#CFD4D8" stroke-width="0.213" stroke-linejoin="round" d="M14.74,15.245
		c-1.236-0.024-1.667-4.42-0.067-3.975C15.631,11.538,16.137,15.273,14.74,15.245z"/>
	<path clip-path="url(#SVGID_2_)" fill-rule="evenodd" clip-rule="evenodd" fill="#303A41" d="M2.406,8.735
		c1.203,0.036,1.623,4.186,0.616,4.849C1.393,14.656,0.61,8.681,2.406,8.735 M2.886,12.641c0.542-0.547,0.492-3.029-0.48-3.029
		C1.044,9.611,1.806,13.733,2.886,12.641"/>
	<path clip-path="url(#SVGID_2_)" fill-rule="evenodd" clip-rule="evenodd" fill="#303A41" d="M12.877,12.642
		c0.025-1.224,0.476-2.539,1.394-2.536c1.142,0.004,1.9,2.14,1.908,3.495c0.008,1.214-0.586,3.189-1.981,2.467
		C13.45,15.681,12.851,13.939,12.877,12.642 M14.672,11.271c-1.599-0.446-1.169,3.951,0.068,3.976
		C16.137,15.273,15.632,11.539,14.672,11.271"/>
</g>
<g>
	<defs>
		<path id="SVGID_3_" d="M19.548,1.427c-0.248,0.006-0.495,0.011-0.73,0.01C16.285,1.424,14,1.454,11.965,1.917
			c0.451,0.363,0.848,1.196,1.234,1.85c0.234,0.398,0.769,1.428,1.164,1.645c0.381,0.208,1.581,0.11,2.468,0.068
			c3.057-0.146,6.183-0.396,9.25-0.411c0.103-0.203-0.226-0.374-0.342-0.48c-0.916-0.824-1.923-1.488-3.084-2.262
			c-0.463-0.307-0.913-0.737-1.303-0.822c-0.326-0.071-0.718-0.09-1.125-0.09C20.004,1.415,19.775,1.421,19.548,1.427"/>
	</defs>
	<clipPath id="SVGID_4_">
		<use xlink:href="#SVGID_3_"  overflow="visible"/>
	</clipPath>
	
		<linearGradient id="SVGID_5_" gradientUnits="userSpaceOnUse" x1="-167.205" y1="121.7179" x2="-166.2049" y2="121.7179" gradientTransform="matrix(14.1364 0 0 -14.1364 2375.6411 1724.1703)">
		<stop  offset="0" style="stop-color:#FFFFFF"/>
		<stop  offset="0.2028" style="stop-color:#F2F7F8"/>
		<stop  offset="0.468" style="stop-color:#DBE9EA"/>
		<stop  offset="0.7667" style="stop-color:#B9D6D9"/>
		<stop  offset="0.989" style="stop-color:#9CC5CA"/>
		<stop  offset="1" style="stop-color:#9CC5CA"/>
	</linearGradient>
	<rect x="11.965" y="1.416" clip-path="url(#SVGID_4_)" fill="url(#SVGID_5_)" width="14.22" height="4.204"/>
</g>
<g>
	<defs>
		<rect id="SVGID_6_" x="0" y="0" width="34.84" height="17.195"/>
	</defs>
	<clipPath id="SVGID_7_">
		<use xlink:href="#SVGID_6_"  overflow="visible"/>
	</clipPath>
	<path clip-path="url(#SVGID_7_)" fill="none" stroke="#6A737B" stroke-width="0.213" d="M26.081,5.069
		c0.104-0.203-0.226-0.374-0.342-0.48c-0.916-0.824-1.924-1.487-3.084-2.261c-0.463-0.309-0.913-0.738-1.302-0.823
		c-0.703-0.153-1.691-0.063-2.536-0.068C16.284,1.423,14,1.453,11.966,1.917c0.45,0.363,0.847,1.196,1.233,1.85
		c0.235,0.398,0.769,1.428,1.164,1.644c0.381,0.208,1.58,0.111,2.468,0.069C19.889,5.334,23.015,5.084,26.081,5.069z"/>
</g>
<g>
	<defs>
		<path id="SVGID_8_" d="M8.779,1.745C8.368,2.728,8.126,3.88,7.888,5.035c0.401,0.032,0.749,0.119,1.165,0.136
			c-0.265-1.162,2.63-1.564,2.877-0.41c0.536-1.383-1.229-3.023-2.95-3.023C8.912,1.738,8.845,1.741,8.779,1.745"/>
	</defs>
	<clipPath id="SVGID_9_">
		<use xlink:href="#SVGID_8_"  overflow="visible"/>
	</clipPath>
	
		<linearGradient id="SVGID_10_" gradientUnits="userSpaceOnUse" x1="-185.6302" y1="115.0816" x2="-184.6303" y2="115.0816" gradientTransform="matrix(3.785 1.0142 1.0142 -3.785 594.2568 626.8181)">
		<stop  offset="0" style="stop-color:#FFFFFF"/>
		<stop  offset="0.2028" style="stop-color:#F2F7F8"/>
		<stop  offset="0.468" style="stop-color:#DBE9EA"/>
		<stop  offset="0.7667" style="stop-color:#B9D6D9"/>
		<stop  offset="0.989" style="stop-color:#9CC5CA"/>
		<stop  offset="1" style="stop-color:#9CC5CA"/>
	</linearGradient>
	<polygon clip-path="url(#SVGID_9_)" fill="url(#SVGID_10_)" points="8.194,0.594 13.324,1.968 12.159,6.315 7.03,4.941 	"/>
</g>
<g>
	<defs>
		<rect id="SVGID_11_" x="0" y="0" width="34.84" height="17.195"/>
	</defs>
	<clipPath id="SVGID_12_">
		<use xlink:href="#SVGID_11_"  overflow="visible"/>
	</clipPath>
	<path clip-path="url(#SVGID_12_)" fill="none" stroke="#6A737B" stroke-width="0.213" d="M11.931,4.761
		c0.557-1.437-1.371-3.151-3.151-3.015C8.368,2.729,8.126,3.88,7.888,5.035c0.401,0.033,0.75,0.118,1.165,0.137
		C8.788,4.009,11.682,3.608,11.931,4.761z"/>
</g>
<g>
	<defs>
		<path id="SVGID_13_" d="M6.038,2.088C5.682,2.874,5.335,3.67,5.147,4.623C5.85,4.65,6.41,4.823,7.066,4.898
			C7.277,3.74,7.691,2.783,8.025,1.745C7.92,1.741,7.816,1.738,7.716,1.738C7.04,1.738,6.472,1.847,6.038,2.088"/>
	</defs>
	<clipPath id="SVGID_14_">
		<use xlink:href="#SVGID_13_"  overflow="visible"/>
	</clipPath>
	
		<linearGradient id="SVGID_15_" gradientUnits="userSpaceOnUse" x1="-196.0388" y1="121.9415" x2="-195.0388" y2="121.9415" gradientTransform="matrix(2.878 0 0 -2.878 569.3469 354.2659)">
		<stop  offset="0" style="stop-color:#FFFFFF"/>
		<stop  offset="0.2028" style="stop-color:#F2F7F8"/>
		<stop  offset="0.468" style="stop-color:#DBE9EA"/>
		<stop  offset="0.7667" style="stop-color:#B9D6D9"/>
		<stop  offset="0.989" style="stop-color:#9CC5CA"/>
		<stop  offset="1" style="stop-color:#9CC5CA"/>
	</linearGradient>
	<rect x="5.147" y="1.738" clip-path="url(#SVGID_14_)" fill="url(#SVGID_15_)" width="2.878" height="3.16"/>
</g>
<g>
	<defs>
		<rect id="SVGID_16_" x="0" y="0" width="34.84" height="17.195"/>
	</defs>
	<clipPath id="SVGID_17_">
		<use xlink:href="#SVGID_16_"  overflow="visible"/>
	</clipPath>
	<path clip-path="url(#SVGID_17_)" fill="none" stroke="#6A737B" stroke-width="0.213" d="M8.025,1.745
		C7.212,1.709,6.537,1.811,6.038,2.088C5.683,2.875,5.336,3.67,5.147,4.624c0.703,0.028,1.263,0.2,1.918,0.274
		C7.278,3.739,7.691,2.782,8.025,1.745z"/>
</g>
<g>
	<defs>
		<path id="SVGID_18_" d="M5.674,2.318c-0.26,0.088-1.438,0.912-1.69,1.963c0.18,0.207,0.591,0.185,0.89,0.274
			c0.179-0.679,0.924-2.258,0.831-2.258C5.698,2.297,5.688,2.303,5.674,2.318"/>
	</defs>
	<clipPath id="SVGID_19_">
		<use xlink:href="#SVGID_18_"  overflow="visible"/>
	</clipPath>
	
		<linearGradient id="SVGID_20_" gradientUnits="userSpaceOnUse" x1="-219.9904" y1="122.2289" x2="-218.9905" y2="122.2289" gradientTransform="matrix(1.7292 0 0 -1.7292 384.3908 214.7842)">
		<stop  offset="0" style="stop-color:#FFFFFF"/>
		<stop  offset="0.2028" style="stop-color:#F2F7F8"/>
		<stop  offset="0.468" style="stop-color:#DBE9EA"/>
		<stop  offset="0.7667" style="stop-color:#B9D6D9"/>
		<stop  offset="0.989" style="stop-color:#9CC5CA"/>
		<stop  offset="1" style="stop-color:#9CC5CA"/>
	</linearGradient>
	<rect x="3.983" y="2.297" clip-path="url(#SVGID_19_)" fill="url(#SVGID_20_)" width="1.813" height="2.258"/>
</g>
<g>
	<defs>
		<rect id="SVGID_21_" x="0" y="0" width="34.84" height="17.195"/>
	</defs>
	<clipPath id="SVGID_22_">
		<use xlink:href="#SVGID_21_"  overflow="visible"/>
	</clipPath>
	<path clip-path="url(#SVGID_22_)" fill="none" stroke="#6A737B" stroke-width="0.213" d="M3.982,4.281
		c0.182,0.207,0.592,0.185,0.891,0.274c0.189-0.724,1.024-2.471,0.801-2.237C5.414,2.406,4.236,3.23,3.982,4.281z"/>
	<path clip-path="url(#SVGID_22_)" fill="#AFDFE4" d="M20.04,8.095c0,0.133-0.1,0.241-0.224,0.241c-0.123,0-0.224-0.108-0.224-0.241
		c0-0.132,0.101-0.24,0.224-0.24C19.94,7.855,20.04,7.963,20.04,8.095"/>
	<path clip-path="url(#SVGID_22_)" fill="#FDEF9C" d="M20.159,8.354c0.119-0.167,0.493-0.106,0.832,0.137
		c0.34,0.243,0.519,0.576,0.398,0.744c-0.12,0.167-0.493,0.107-0.832-0.137C20.218,8.854,20.04,8.521,20.159,8.354"/>
	<path clip-path="url(#SVGID_22_)" fill="#FDEF9C" d="M31.236,8.261c0.119-0.167,0.301-0.243,0.404-0.17
		c0.104,0.074,0.089,0.27-0.029,0.439c-0.12,0.167-0.302,0.243-0.405,0.169C31.101,8.625,31.116,8.428,31.236,8.261"/>
	<path clip-path="url(#SVGID_22_)" fill-rule="evenodd" clip-rule="evenodd" fill="#6A737B" d="M23.749,8.641
		c0.322,0.625,0.708,1.185,0.99,1.849c1.994,0.156,4.245,0.028,5.873-0.398c-0.027-0.698-0.207-1.244-0.33-1.847
		C28.464,8.712,25.981,8.798,23.749,8.641"/>
	<path clip-path="url(#SVGID_22_)" fill="none" stroke="#CFD4D8" stroke-width="0.213" d="M23.749,8.641
		c0.322,0.625,0.708,1.185,0.99,1.849c1.994,0.156,4.245,0.028,5.873-0.398c-0.027-0.698-0.207-1.244-0.33-1.847
		C28.464,8.712,25.981,8.798,23.749,8.641z"/>
	
		<path clip-path="url(#SVGID_22_)" fill="none" stroke="#F58678" stroke-width="0.136" stroke-linecap="round" stroke-linejoin="round" d="
		M30.472,7.879c-0.479-1.669-2.449-1.844-3.769-2.673c-3.959,0.125-7.968,0.205-11.991,0.549c0.439,0.422,1.106,0.373,1.644,0.479
		c1.576,0.311,3.345,0.681,4.797,1.371c0.41,0.194,0.802,0.618,1.233,0.754c0.91,0.285,2.268,0.255,3.357,0.205
		C27.469,8.486,29.146,8.422,30.472,7.879z"/>
	
		<path clip-path="url(#SVGID_22_)" fill="none" stroke="#F58678" stroke-width="0.136" stroke-linecap="round" stroke-linejoin="round" d="
		M17.784,10.844c2.066,0.013,3.583,0.22,5.566,0.768c1.033,0.286,2.043,0.376,3.146,0.286c0.972-0.08,1.981-0.217,2.936-0.427
		c0.601-0.134,1.251-0.14,1.815-0.348c0.377-0.138,0.606-0.421,0.904-0.69"/>
	
		<path clip-path="url(#SVGID_22_)" fill="none" stroke="#F58678" stroke-width="0.136" stroke-linecap="round" stroke-linejoin="round" d="
		M9.195,6.926C9.175,7.043,9.064,7.121,8.948,7.101L7.718,6.89C7.6,6.87,7.523,6.76,7.543,6.643C7.563,6.527,7.674,6.449,7.79,6.468
		l1.23,0.211C9.137,6.699,9.215,6.809,9.195,6.926z"/>
	
		<path clip-path="url(#SVGID_22_)" fill="none" stroke="#F58678" stroke-width="0.136" stroke-linecap="round" stroke-linejoin="round" d="
		M4.6,6.185c-0.016,0.093-0.104,0.156-0.198,0.14L3.418,6.157C3.324,6.14,3.262,6.052,3.277,5.958
		c0.017-0.093,0.105-0.156,0.198-0.14L4.46,5.987C4.553,6.003,4.615,6.092,4.6,6.185z"/>
	
		<path clip-path="url(#SVGID_22_)" fill="none" stroke="#F58678" stroke-width="0.136" stroke-linecap="round" stroke-linejoin="round" d="
		M9.083,5.36c0.174,0.7,2.409,0.571,2.881,0.486c-0.088,0.112-0.127,0.272-0.17,0.406"/>
	
		<path clip-path="url(#SVGID_22_)" fill="none" stroke="#F58678" stroke-width="0.136" stroke-linecap="round" stroke-linejoin="round" d="
		M11.965,7.418c-0.246,2.01-0.117,3.969,0.343,5.936"/>
	
		<path clip-path="url(#SVGID_22_)" fill="none" stroke="#F58678" stroke-width="0.136" stroke-linecap="round" stroke-linejoin="round" d="
		M6.893,5.532c-0.307,2.277-0.147,4.497,0.429,6.725"/>
	<path clip-path="url(#SVGID_22_)" fill="#455560" d="M26.581,14.081c0.459,0.878,1.228,1.455,2.37,1.409
		c1.588-0.065,2.344-0.827,2.638-1.899c-0.183,0.042-0.366,0.079-0.551,0.104C29.557,13.9,28.076,14.034,26.581,14.081"/>
	<path clip-path="url(#SVGID_22_)" fill="#797A7D" d="M29.519,13.28c0.127-0.034,0.239-0.14,0.25-0.234l0.056-0.495
		c0.01-0.095-0.085-0.143-0.213-0.111l-3.099,0.292c-0.126,0.034-0.237,0.14-0.249,0.234l-0.054,0.494
		c-0.01,0.096,0.084,0.144,0.21,0.111L29.519,13.28z"/>
</g>
</svg>
